<svg width="54" height="64" viewBox="0 0 54 64" fill="none" xmlns="http://www.w3.org/2000/svg">
<path d="M8.35596 63.2433H31.077C44.3528 63.2433 52.7534 56.2355 52.7534 45.4843C52.7534 36.9966 46.6597 30.8593 37.7802 30.3806V30.0323C45.0056 29.0312 49.9242 23.5905 49.9242 16.6696C49.9242 6.9631 42.5246 1 30.4242 1H8.35596C3.69861 1 1 3.74226 1 8.52997V55.7567C1 60.501 3.69861 63.2433 8.35596 63.2433ZM15.3639 26.855V11.2288H26.0714C32.1651 11.2288 35.7778 14.0145 35.7778 18.8024C35.7778 23.8516 31.7734 26.855 24.9833 26.855H15.3639ZM15.3639 53.1885V35.9083H26.2891C33.9498 35.9083 38.1718 38.8683 38.1718 44.4397C38.1718 50.1417 34.0804 53.1885 26.5937 53.1885H15.3639Z" fill="#E0DDCF" stroke="#E0DDCF"/>
</svg>
