<svg width="43" height="59" viewBox="0 0 43 59" fill="none" xmlns="http://www.w3.org/2000/svg">
<path d="M41.8125 3.09375V7.15625C41.8125 7.69497 41.5985 8.21163 41.2176 8.59256C40.8366 8.97349 40.32 9.1875 39.7812 9.1875H31.8137L21.6574 49.8125H27.5938C28.1325 49.8125 28.6491 50.0265 29.0301 50.4074C29.411 50.7884 29.625 51.305 29.625 51.8438V55.9062C29.625 56.445 29.411 56.9616 29.0301 57.3426C28.6491 57.7235 28.1325 57.9375 27.5938 57.9375H3.21875C2.68003 57.9375 2.16337 57.7235 1.78244 57.3426C1.40151 56.9616 1.1875 56.445 1.1875 55.9062V51.8438C1.1875 51.305 1.40151 50.7884 1.78244 50.4074C2.16337 50.0265 2.68003 49.8125 3.21875 49.8125H11.1863L21.3426 9.1875H15.4062C14.8675 9.1875 14.3509 8.97349 13.9699 8.59256C13.589 8.21163 13.375 7.69497 13.375 7.15625V3.09375C13.375 2.55503 13.589 2.03837 13.9699 1.65744C14.3509 1.27651 14.8675 1.0625 15.4062 1.0625H39.7812C40.32 1.0625 40.8366 1.27651 41.2176 1.65744C41.5985 2.03837 41.8125 2.55503 41.8125 3.09375Z" fill="#E0DDCF" stroke="#E0DDCF"/>
</svg>
