<svg width="51" height="56" viewBox="0 0 51 56" fill="none" xmlns="http://www.w3.org/2000/svg">
<path d="M24.0501 4.64102L24.272 4.99868L24.4469 5.37732L42.5409 51.4498C43.205 53.141 42.3725 55.0504 40.6813 55.7146C39.111 56.3313 37.3524 55.6575 36.5774 54.204L36.4166 53.855L32.0602 42.7646H10.706L6.35284 53.855C5.73611 55.4254 4.0457 56.2554 2.45331 55.8342L2.08811 55.7146C0.517736 55.0978 -0.312294 53.4074 0.108917 51.815L0.228564 51.4498L18.3226 5.37732C19.3087 2.86636 22.6112 2.62093 24.0501 4.64102ZM21.3847 15.5743L13.2885 36.185H29.4777L21.3847 15.5743ZM40.0824 0.231942C40.7437 -0.0773142 41.5102 -0.0773142 42.1716 0.231942L42.4925 0.412342L49.8979 5.33325L50.1868 5.55733C51.0802 6.3626 51.273 7.72206 50.5874 8.75384C49.9018 9.78562 48.5738 10.1345 47.4853 9.62281L47.1668 9.4433L41.1269 5.43083L35.0871 9.4433L34.7686 9.62281C33.6801 10.1345 32.3521 9.78562 31.6665 8.75384C30.9809 7.72206 31.1737 6.3626 32.0671 5.55733L32.356 5.33325L39.7614 0.412342L40.0824 0.231942Z" fill="#E0DDCF"/>
</svg>
