<svg width="51" height="56" viewBox="0 0 51 56" fill="none" xmlns="http://www.w3.org/2000/svg">
<path d="M20.5738 16.2879L20.8271 16.6758L21.0393 17.1094L34.946 50.4855C35.7338 52.3761 34.8397 54.5473 32.9492 55.335C31.1936 56.0665 29.1961 55.3479 28.289 53.7278L28.0996 53.3382L24.4137 44.4949H10.8148L7.13261 53.3382C6.40114 55.0937 4.47678 55.99 2.69191 55.4784L2.28309 55.335C0.527559 54.6036 -0.368704 52.6792 0.142923 50.8943L0.286232 50.4855L14.1929 17.1094C15.334 14.3709 18.9398 14.097 20.5738 16.2879ZM17.6161 28.1777L13.9077 37.078H21.3246L17.6161 28.1777ZM50.5349 1.2423C51.3078 2.40538 51.0904 3.93783 50.0833 4.84558L49.7577 5.09817L41.4099 10.6453C40.5939 11.1876 39.5629 11.2553 38.6931 10.8486L38.3313 10.6453L29.9835 5.09817C28.7041 4.24802 28.3562 2.52169 29.2063 1.2423C29.9792 0.0792291 31.4762 -0.314076 32.7032 0.262758L33.0622 0.465112L39.8706 4.98506L46.679 0.465112C47.9584 -0.38504 49.6847 -0.0370784 50.5349 1.2423Z" fill="#E0DDCF"/>
</svg>
