<svg width="62" height="62" viewBox="0 0 62 62" fill="none" xmlns="http://www.w3.org/2000/svg">
<path fill-rule="evenodd" clip-rule="evenodd" d="M57.2849 17.2926L40.5883 3.48757C34.964 -1.16252 27.036 -1.16252 21.4118 3.48757L4.71501 17.2926C1.70683 19.7798 0 23.5509 0 27.4855V49.0138C0 56.0046 5.37586 62 12.4 62H18.6C22.0242 62 24.8 59.2243 24.8 55.8V45.7182C24.8 41.7889 27.7515 38.932 31 38.932C34.2485 38.932 37.2 41.7889 37.2 45.7182V55.8C37.2 59.2243 39.9757 62 43.4 62H49.6C56.6243 62 62 56.0046 62 49.0138V27.4855C62 23.5509 60.2931 19.7798 57.2849 17.2926Z" fill="#E0DDCF"/>
</svg>
