<svg width="62" height="66" viewBox="0 0 62 66" fill="none" xmlns="http://www.w3.org/2000/svg">
<path fill-rule="evenodd" clip-rule="evenodd" d="M36.8045 0.496783C35.5961 1.45874e-07 34.0641 0 31 0C27.9359 0 26.4038 1.45874e-07 25.1955 0.496783C23.5841 1.15917 22.3039 2.42968 21.6365 4.02879C21.3319 4.75879 21.2126 5.60773 21.166 6.84607C21.0974 8.66589 20.157 10.3504 18.5679 11.2609C16.9788 12.1714 15.0387 12.1374 13.4164 11.2865C12.3125 10.7074 11.512 10.3854 10.7227 10.2823C8.99354 10.0563 7.24478 10.5214 5.86114 11.5751C4.82339 12.3653 4.05737 13.6821 2.52535 16.3155C0.99333 18.949 0.227337 20.2658 0.0566083 21.5528C-0.171062 23.2689 0.297527 25.0044 1.35926 26.3777C1.84387 27.0046 2.52492 27.5312 3.58196 28.1904C5.1359 29.1595 6.13577 30.8104 6.13567 32.6315C6.13557 34.4527 5.13574 36.1032 3.58196 37.072C2.52476 37.7315 1.84358 38.2585 1.35893 38.8854C0.297201 40.2585 -0.171355 41.9939 0.0562823 43.71C0.227011 44.9969 0.993035 46.314 2.52502 48.9473C4.05704 51.5807 4.82307 52.8977 5.86081 53.6877C7.24446 54.7414 8.99321 55.2064 10.7224 54.9806C11.5117 54.8774 12.312 54.5554 13.4159 53.9765C15.0383 53.1255 16.9785 53.0915 18.5677 54.0019C20.157 54.9127 21.0974 56.5971 21.166 58.4173C21.2126 59.6554 21.3319 60.5044 21.6365 61.2344C22.3039 62.8333 23.5841 64.104 25.1955 64.7664C26.4038 65.2631 27.9359 65.2631 31 65.2631C34.0641 65.2631 35.5961 65.2631 36.8045 64.7664C38.4158 64.104 39.6959 62.8333 40.3633 61.2344C40.668 60.5044 40.7875 59.6554 40.8341 58.417C40.9027 56.5971 41.8428 54.9127 43.4319 54.0019C45.0211 53.0912 46.9614 53.1255 48.5838 53.9765C49.6877 54.5554 50.4879 54.8771 51.2772 54.9802C53.0064 55.2064 54.7551 54.7414 56.1387 53.6877C57.1767 52.8974 57.9425 51.5807 59.4746 48.947C61.0066 46.3136 61.7725 44.9969 61.9435 43.71C62.1709 41.9939 61.7023 40.2582 60.6408 38.8851C60.1559 38.2582 59.4749 37.7312 58.4176 37.072C56.8641 36.1032 55.8642 34.4524 55.8642 32.6312C55.8642 30.8101 56.8641 29.1599 58.4176 28.191C59.4752 27.5316 60.1562 27.0049 60.6411 26.3777C61.7027 25.0047 62.1712 23.2691 61.9438 21.553C61.7728 20.266 61.007 18.9492 59.4749 16.3158C57.9428 13.6823 57.177 12.3656 56.139 11.5753C54.7554 10.5216 53.0067 10.0566 51.2775 10.2825C50.4882 10.3856 49.6877 10.7076 48.5841 11.2866C46.9617 12.1376 45.0214 12.1716 43.4323 11.261C41.8431 10.3504 40.9027 8.66583 40.8338 6.8459C40.7871 5.60767 40.668 4.75876 40.3633 4.02879C39.6959 2.42968 38.4158 1.15917 36.8045 0.496783ZM31 42.421C36.4478 42.421 40.8638 38.0383 40.8638 32.6315C40.8638 27.2248 36.4478 22.8421 31 22.8421C25.5521 22.8421 21.136 27.2248 21.136 32.6315C21.136 38.0383 25.5521 42.421 31 42.421Z" fill="#E0DDCF"/>
</svg>
