<svg width="56" height="63" viewBox="0 0 56 63" fill="none" xmlns="http://www.w3.org/2000/svg">
<path d="M0 3.29167C0 1.47374 1.47374 0 3.29167 0H52.6667C54.4846 0 55.9583 1.47374 55.9583 3.29167V13.1667C55.9583 14.9846 54.4846 16.4583 52.6667 16.4583H49.375C47.557 16.4583 46.0833 14.9846 46.0833 13.1667V9.875H32.9167V52.6667H39.5C41.318 52.6667 42.7917 54.1403 42.7917 55.9583V59.25C42.7917 61.068 41.318 62.5417 39.5 62.5417H16.4583C14.6404 62.5417 13.1667 61.068 13.1667 59.25V55.9583C13.1667 54.1403 14.6404 52.6667 16.4583 52.6667H23.0417V9.875H9.875V13.1667C9.875 14.9846 8.40125 16.4583 6.58333 16.4583H3.29167C1.47374 16.4583 0 14.9846 0 13.1667V3.29167Z" fill="#E0DDCF"/>
</svg>
