<svg width="56" height="63" viewBox="0 0 56 63" fill="none" xmlns="http://www.w3.org/2000/svg">
<path fill-rule="evenodd" clip-rule="evenodd" d="M2.91678 43.1143C4.40103 43.1143 5.60428 44.4603 5.60428 46.1206V55.1525C5.60428 55.7061 6.00536 56.1546 6.50011 56.1546H49.5C49.9949 56.1546 50.3958 55.7061 50.3958 55.1525V46.1206C50.3958 44.4603 51.5991 43.1143 53.0833 43.1143C54.5676 43.1143 55.7708 44.4603 55.7708 46.1206V55.1525C55.7708 59.0267 52.9633 62.1673 49.5 62.1673H6.50011C3.03682 62.1673 0.229279 59.0267 0.229279 55.1525V46.1206C0.229279 44.4603 1.43253 43.1143 2.91678 43.1143Z" fill="#E0DDCF"/>
<path fill-rule="evenodd" clip-rule="evenodd" d="M28.7249 5.37085C30.2091 5.37085 31.4124 6.71686 31.4124 8.37721V40.7882C31.4124 42.4485 30.2091 43.7946 28.7249 43.7946C27.2407 43.7946 26.0374 42.4485 26.0374 40.7882V8.37721C26.0374 6.71686 27.2407 5.37085 28.7249 5.37085Z" fill="#E0DDCF"/>
<path fill-rule="evenodd" clip-rule="evenodd" d="M26.8461 0.892072C27.8903 -0.24918 29.558 -0.24918 30.6022 0.892072L42.5845 13.987C43.6459 15.1473 43.666 17.0507 42.6286 18.2384C41.5912 19.426 39.8898 19.4482 38.8281 18.2879L28.7242 7.24546L18.6202 18.2879C17.5585 19.4482 15.857 19.426 14.8198 18.2384C13.7825 17.0507 13.8023 15.1473 14.8641 13.987L26.8461 0.892072Z" fill="#E0DDCF"/>
</svg>
